<svg width="78" height="85" xmlns:xlink="http://www.w3.org/1999/xlink" xmlns="http://www.w3.org/2000/svg"><defs><linearGradient id="a"><stop style="stop-color:#f0c200;stop-opacity:1" offset="0"/><stop style="stop-color:#78bd7f;stop-opacity:1" offset=".766"/><stop style="stop-color:#409c68;stop-opacity:1" offset="1"/></linearGradient><linearGradient x1="0%" y1="53.59%" x2="95.645%" y2="53.59%" id="c"><stop stop-color="#F9E300" offset="0%"/><stop stop-color="#77BD75" offset="77.445%"/><stop stop-color="#409C68" offset="100%"/></linearGradient><linearGradient xlink:href="#a" id="b" x1=".2" y1="42.291" x2="77.064" y2="42.291" gradientUnits="userSpaceOnUse"/></defs><g transform="translate(.2)" style="fill:url(#b)" fill="none" fill-rule="evenodd"><path d="M64.507 33.167v20.497a5.276 5.276 0 0 1-2.64 4.57L42.172 69.607a5.282 5.282 0 0 1-5.278 0l-12.017-6.938-16.554 4.71 28.57 16.497a5.277 5.277 0 0 0 5.279 0l32.055-18.507a5.278 5.278 0 0 0 2.639-4.571v-34.36l-12.358 6.729zM2.199 58.444v-34.66a5.278 5.278 0 0 1 2.639-4.57L36.893.707a5.277 5.277 0 0 1 5.278 0l34.694 20.03-40.782 22.934 7.3 7.702-40.71 12.745h-.001L0 64.955l14.84-8.08.013.007 16.115-8.728-8.564-9.771 30.974-16.936-11.207-6.471a5.277 5.277 0 0 0-5.278 0L17.196 26.349a5.276 5.276 0 0 0-2.64 4.57v20.576L2.2 58.444z" fill="url(#c)" mask="url(#mask-2)" style="fill:url(#b)"/></g></svg>