<svg width="204" height="28" xmlns:xlink="http://www.w3.org/1999/xlink" xmlns="http://www.w3.org/2000/svg"><defs><linearGradient id="a"><stop style="stop-color:#f0c200;stop-opacity:1" offset="0"/><stop style="stop-color:#76bd76;stop-opacity:1" offset=".77"/><stop style="stop-color:#409c68;stop-opacity:1" offset="1"/></linearGradient><linearGradient xlink:href="#a" id="b" x1="0" y1="13.849" x2="203.164" y2="13.849" gradientUnits="userSpaceOnUse"/><path id="c" d="M0 0h203.164v27.698H0z"/></defs><g style="fill:url(#b)" fill="none" fill-rule="evenodd"><mask id="d" fill="#fff" style="fill:url(#b)"><use xlink:href="#c" style="fill:url(#b)"/></mask><path d="m19.121 13.416 1-13.24L16.417.02l-.147 16.069-.03 3.432 2.225-2.385 2.19-2.348-2.439 10.864 4.494-13.184.744-2.184-1.962 1.418-2.37 1.714zm46.497 1.913-3.017-.14-1.613-.073.846 1.203 6.461 9.182-4.34-8.348 2.831.855 1.468.443.077-1.75.493-11.306-3.708.013.502 9.92zm133.89-3.566c-.14-1.446-1.669-3.476-4.339-3.448-2.697 0-4.17 1.947-4.31 3.448h8.648zm3.587 2.78h-12.292c.167 2.449 2.336 3.81 4.422 3.783 1.527 0 2.624-.593 3.343-1.552.235-.312.594-.506.984-.506h3.098c-.723 1.697-1.808 2.976-3.087 3.838-1.279.89-2.78 1.335-4.366 1.335-4.7 0-8.065-3.81-8.065-8.065 0-4.338 3.393-8.148 8.01-8.148 2.28 0 4.282.862 5.7 2.336 1.863 1.919 2.56 4.31 2.253 6.98zM178.15 13.46c0-1.168-.36-2.392-1.112-3.282-.723-.917-1.863-1.53-3.448-1.53-2.475 0-4.56 1.92-4.56 4.645v.028c0 2.669 1.918 4.699 4.56 4.699 1.362 0 2.447-.472 3.253-1.307.807-.806 1.28-1.946 1.307-3.253zm3.643-6.541V19.16c0 2.502-.472 4.115-1.418 5.395-1.307 1.752-3.865 3.142-7.008 3.142-4.755 0-7.036-2.836-7.592-5.2h3.5c.396 0 .786.169 1.022.489.336.458.79.818 1.29 1.068a4.368 4.368 0 0 0 2.003.528c2.17 0 4.532-1.501 4.532-4.588v-1.28c-.75 1.363-2.363 2.726-4.95 2.726-4.393 0-7.786-3.337-7.786-8.037 0-4.978 3.56-8.148 7.786-8.148 2.198 0 4.088 1 4.95 2.503V5.7h2.454c.672 0 1.217.545 1.217 1.218zm-24.083.784V5.7h-2.23c-.673 0-1.218.545-1.218 1.218v14.049h3.643v-8.231c0-2.642 1.307-3.838 3.865-3.838h.167V5.228c-2.308.028-3.559 1.113-4.227 2.475zm-13.432 5.757a4.755 4.755 0 0 0-.417-2.142c-.64-1.446-2.058-2.697-4.255-2.697-2.948 0-4.616 2.392-4.616 4.755v.028c0 1.89 1.362 4.644 4.644 4.644 2.03 0 3.365-1.056 4.06-2.447.361-.667.528-1.391.584-2.141zm3.615-6.541v14.049h-3.643V18.77c-.973 1.78-3.003 2.67-5.145 2.67-4.894 0-7.758-3.81-7.758-8.12 0-4.811 3.476-8.093 7.758-8.093 2.781 0 4.477 1.474 5.145 2.698V5.7h2.425c.673 0 1.218.545 1.218 1.218zm-28.004-1.691c-1.808-.028-3.643.668-4.505 2.28V.39h-2.426c-.672 0-1.217.545-1.217 1.217v19.36h3.643v-8.536c0-.78.14-1.697.64-2.447.5-.751 1.362-1.335 2.808-1.335 1.28 0 2.113.472 2.642 1.196.501.723.695 1.724.695 2.892v8.23h3.643V12.57c0-2.058-.278-3.866-1.196-5.2-.889-1.335-2.363-2.142-4.727-2.142zm-23.75-1.585c2.86.024 4.622 1.78 5.451 3.17.217.366.612.584 1.037.584h3.634C105.454 4.394 102.09.027 96.166 0c-6.508 0-10.762 5.173-10.762 10.65 0 5.73 4.505 10.707 10.79 10.707 4.811 0 8.815-3.031 10.066-7.285h-3.664c-.413 0-.799.205-1.02.553-.705 1.108-2.372 3.09-5.41 3.09-3.92 0-6.619-3.31-6.619-7.064 0-3.643 2.587-7.008 6.591-7.008zM68.634.39H66.21c-.672 0-1.218.545-1.218 1.217v2.036h3.643V.39zM59.707 5.7H56.04a1.22 1.22 0 0 0-1.029.567L52.393 10.4l-2.617-4.134a1.217 1.217 0 0 0-1.028-.566h-3.724l5.145 7.23-5.646 8.037h3.765c.41 0 .793-.206 1.018-.55l3.087-4.706 3.061 4.703c.224.345.608.553 1.02.553h3.817l-5.7-8.037 5.116-7.23zm-21.775 6.063c-.139-1.446-1.669-3.476-4.338-3.448-2.698 0-4.17 1.947-4.31 3.448h8.648zm1.335-4.2c1.863 1.92 2.558 4.312 2.252 6.98H29.23c.166 2.449 2.335 3.81 4.421 3.783 1.526 0 2.623-.593 3.343-1.552.235-.312.594-.506.984-.506h3.097c-.722 1.697-1.807 2.976-3.086 3.838-1.28.89-2.78 1.335-4.366 1.335-4.7 0-8.065-3.81-8.065-8.065 0-4.338 3.393-8.148 8.01-8.148 2.28 0 4.282.862 5.7 2.336zM1.712.39h9.217v3.642H4.143v4.923h6.62v3.643h-6.62v8.37H0V2.102C0 1.156.767.39 1.712.39z" fill="#212121" mask="url(#d)" style="fill:url(#b)"/></g></svg>