<?xml version="1.0" encoding="UTF-8" standalone="no"?>
<svg
   width="204px"
   height="28px"
   viewBox="0 0 204 28"
   version="1.1"
   id="svg1"
   sodipodi:docname="title-off-white.svg"
   inkscape:version="1.3 (0e150ed6c4, 2023-07-21)"
   xmlns:inkscape="http://www.inkscape.org/namespaces/inkscape"
   xmlns:sodipodi="http://sodipodi.sourceforge.net/DTD/sodipodi-0.dtd"
   xmlns:xlink="http://www.w3.org/1999/xlink"
   xmlns="http://www.w3.org/2000/svg"
   xmlns:svg="http://www.w3.org/2000/svg"
   xmlns:rdf="http://www.w3.org/1999/02/22-rdf-syntax-ns#"
   xmlns:cc="http://creativecommons.org/ns#"
   xmlns:dc="http://purl.org/dc/elements/1.1/">
  <sodipodi:namedview
     id="namedview1"
     pagecolor="#ffffff"
     bordercolor="#000000"
     borderopacity="0.25"
     inkscape:showpageshadow="2"
     inkscape:pageopacity="0.0"
     inkscape:pagecheckerboard="0"
     inkscape:deskcolor="#d1d1d1"
     inkscape:zoom="6.7303922"
     inkscape:cx="102"
     inkscape:cy="13.966497"
     inkscape:window-width="1920"
     inkscape:window-height="1008"
     inkscape:window-x="0"
     inkscape:window-y="0"
     inkscape:window-maximized="1"
     inkscape:current-layer="Symbols" />
  <title
     id="title1">Group 3</title>
  <defs
     id="defs1">
    <polygon
       id="path-1"
       points="0.0002 -0.0001 203.164 -0.0001 203.164 27.6979 0.0002 27.6979" />
  </defs>
  <g
     id="Symbols"
     stroke="none"
     stroke-width="1"
     fill="none"
     fill-rule="evenodd">
    <g
       id="Logo/2row/color-and-black"
       transform="translate(0.000000, -104.000000)"
       style="fill:#e5e5e5;fill-opacity:1">
      <g
         id="Group-3"
         transform="translate(0.000000, 104.000000)"
         style="fill:#e5e5e5;fill-opacity:1">
        <mask
           id="mask-2"
           fill="white">
          <use
             xlink:href="#path-1"
             id="use1" />
        </mask>
        <g
           id="Clip-2"
           style="fill:#e5e5e5;fill-opacity:1" />
        <path
           d="M19.1212,13.4159 L20.1212,0.1769 L16.4172,0.0199 L16.2702,16.0889 L16.2392,19.5209 L18.4652,17.1359 L20.6542,14.7879 L18.2162,25.6519 L22.7102,12.4679 L23.4542,10.2839 L21.4922,11.7019 L19.1212,13.4159 Z M65.6182,15.3289 L62.6012,15.1899 L60.9882,15.1159 L61.8342,16.3189 L68.2952,25.5009 L63.9542,17.1529 L66.7862,18.0079 L68.2542,18.4509 L68.3312,16.7009 L68.8242,5.3949 L65.1162,5.4079 L65.6182,15.3289 Z M199.5072,11.7629 C199.3682,10.3169 197.8392,8.2869 195.1692,8.3149 C192.4722,8.3149 190.9982,10.2619 190.8592,11.7629 L199.5072,11.7629 Z M203.0952,14.5439 L190.8032,14.5439 C190.9702,16.9919 193.1392,18.3539 195.2252,18.3259 C196.7522,18.3259 197.8492,17.7329 198.5682,16.7739 C198.8032,16.4619 199.1622,16.2679 199.5522,16.2679 L202.6502,16.2679 C201.9272,17.9649 200.8422,19.2439 199.5632,20.1059 C198.2842,20.9959 196.7822,21.4409 195.1972,21.4409 C190.4972,21.4409 187.1322,17.6309 187.1322,13.3759 C187.1322,9.0379 190.5252,5.2279 195.1412,5.2279 C197.4222,5.2279 199.4242,6.0899 200.8422,7.5639 C202.7052,9.4829 203.4012,11.8749 203.0952,14.5439 L203.0952,14.5439 Z M178.1492,13.4599 C178.1492,12.2919 177.7882,11.0679 177.0372,10.1779 C176.3142,9.2609 175.1742,8.6489 173.5892,8.6489 C171.1142,8.6489 169.0282,10.5679 169.0282,13.2929 L169.0282,13.3209 C169.0282,15.9899 170.9472,18.0199 173.5892,18.0199 C174.9512,18.0199 176.0362,17.5479 176.8422,16.7129 C177.6492,15.9069 178.1212,14.7669 178.1492,13.4599 L178.1492,13.4599 Z M181.7922,6.9189 L181.7922,19.1609 C181.7922,21.6629 181.3202,23.2759 180.3742,24.5559 C179.0672,26.3079 176.5092,27.6979 173.3662,27.6979 C168.6112,27.6979 166.3302,24.8619 165.7742,22.4979 L169.2732,22.4979 C169.6702,22.4979 170.0602,22.6669 170.2962,22.9869 C170.6322,23.4449 171.0862,23.8049 171.5862,24.0549 C172.3372,24.4719 173.1442,24.5829 173.5892,24.5829 C175.7582,24.5829 178.1212,23.0819 178.1212,19.9949 L178.1212,18.7159 C177.3712,20.0779 175.7582,21.4409 173.1712,21.4409 C168.7782,21.4409 165.3852,18.1039 165.3852,13.4039 C165.3852,8.4259 168.9452,5.2559 173.1712,5.2559 C175.3692,5.2559 177.2592,6.2569 178.1212,7.7589 L178.1212,5.7009 L180.5752,5.7009 C181.2472,5.7009 181.7922,6.2459 181.7922,6.9189 L181.7922,6.9189 Z M157.7092,7.7029 L157.7092,5.7009 L155.4792,5.7009 C154.8062,5.7009 154.2612,6.2459 154.2612,6.9189 L154.2612,20.9679 L157.9042,20.9679 L157.9042,12.7369 C157.9042,10.0949 159.2112,8.8989 161.7692,8.8989 L161.9362,8.8989 L161.9362,5.2279 C159.6282,5.2559 158.3772,6.3409 157.7092,7.7029 L157.7092,7.7029 Z M144.2772,13.4599 C144.3052,12.7369 144.1662,11.9859 143.8602,11.3179 C143.2202,9.8719 141.8022,8.6209 139.6052,8.6209 C136.6572,8.6209 134.9892,11.0129 134.9892,13.3759 L134.9892,13.4039 C134.9892,15.2949 136.3512,18.0479 139.6332,18.0479 C141.6632,18.0479 142.9982,16.9919 143.6932,15.6009 C144.0542,14.9339 144.2212,14.2099 144.2772,13.4599 L144.2772,13.4599 Z M147.8922,6.9189 L147.8922,20.9679 L144.2492,20.9679 L144.2492,18.7709 C143.2762,20.5509 141.2462,21.4409 139.1042,21.4409 C134.2102,21.4409 131.3462,17.6309 131.3462,13.3209 C131.3462,8.5099 134.8222,5.2279 139.1042,5.2279 C141.8852,5.2279 143.5812,6.7019 144.2492,7.9259 L144.2492,5.7009 L146.6742,5.7009 C147.3472,5.7009 147.8922,6.2459 147.8922,6.9189 L147.8922,6.9189 Z M119.8882,5.2279 C118.0802,5.1999 116.2452,5.8959 115.3832,7.5089 L115.3832,5.3389 L115.3832,0.3899 L112.9572,0.3899 C112.2852,0.3899 111.7402,0.9349 111.7402,1.6069 L111.7402,20.9679 L115.3832,20.9679 L115.3832,12.4309 C115.3832,11.6519 115.5222,10.7339 116.0222,9.9839 C116.5232,9.2329 117.3852,8.6489 118.8312,8.6489 C120.1102,8.6489 120.9442,9.1209 121.4732,9.8449 C121.9742,10.5679 122.1682,11.5689 122.1682,12.7369 L122.1682,20.9679 L125.8112,20.9679 L125.8112,12.5699 C125.8112,10.5119 125.5332,8.7039 124.6152,7.3699 C123.7262,6.0349 122.2522,5.2279 119.8882,5.2279 L119.8882,5.2279 Z M96.1382,3.6429 C98.9982,3.6669 100.7602,5.4239 101.5892,6.8139 C101.8062,7.1789 102.2012,7.3969 102.6262,7.3969 L106.2602,7.3969 C105.4542,4.3939 102.0892,0.0279 96.1662,-0.0001 C89.6582,-0.0001 85.4042,5.1729 85.4042,10.6509 C85.4042,16.3799 89.9092,21.3569 96.1942,21.3569 C101.0052,21.3569 105.0092,18.3259 106.2602,14.0719 L102.5962,14.0719 C102.1832,14.0719 101.7972,14.2769 101.5762,14.6249 C100.8712,15.7329 99.2042,17.7149 96.1662,17.7149 C92.2452,17.7149 89.5472,14.4049 89.5472,10.6509 C89.5472,7.0079 92.1342,3.6429 96.1382,3.6429 L96.1382,3.6429 Z M68.6342,0.3899 L66.2092,0.3899 C65.5372,0.3899 64.9912,0.9349 64.9912,1.6069 L64.9912,3.6429 L68.6342,3.6429 L68.6342,0.3899 Z M59.7072,5.7009 L56.0392,5.7009 C55.6222,5.7009 55.2342,5.9149 55.0102,6.2669 L52.3932,10.4009 L49.7762,6.2669 C49.5532,5.9149 49.1652,5.7009 48.7482,5.7009 L45.0242,5.7009 L50.1692,12.9309 L44.5232,20.9679 L48.2882,20.9679 C48.6982,20.9679 49.0812,20.7619 49.3062,20.4179 L52.3932,15.7119 L55.4542,20.4149 C55.6782,20.7599 56.0622,20.9679 56.4742,20.9679 L60.2912,20.9679 L54.5902,12.9309 L59.7072,5.7009 Z M37.9322,11.7629 C37.7932,10.3169 36.2632,8.2869 33.5942,8.3149 C30.8962,8.3149 29.4232,10.2619 29.2842,11.7629 L37.9322,11.7629 Z M39.2672,7.5639 C41.1302,9.4829 41.8252,11.8749 41.5192,14.5439 L29.2282,14.5439 C29.3952,16.9919 31.5642,18.3539 33.6502,18.3259 C35.1762,18.3259 36.2732,17.7329 36.9932,16.7739 C37.2282,16.4619 37.5872,16.2679 37.9772,16.2679 L41.0742,16.2679 C40.3522,17.9649 39.2672,19.2439 37.9882,20.1059 C36.7082,20.9959 35.2072,21.4409 33.6222,21.4409 C28.9222,21.4409 25.5572,17.6309 25.5572,13.3759 C25.5572,9.0379 28.9502,5.2279 33.5662,5.2279 C35.8462,5.2279 37.8492,6.0899 39.2672,7.5639 L39.2672,7.5639 Z M1.7122,0.3899 L10.9292,0.3899 L10.9292,4.0319 L4.1432,4.0319 L4.1432,8.9549 L10.7622,8.9549 L10.7622,12.5979 L4.1432,12.5979 L4.1432,20.9679 L0.0002,20.9679 L0.0002,2.1019 C0.0002,1.1559 0.7672,0.3899 1.7122,0.3899 L1.7122,0.3899 Z"
           id="Fill-1"
           fill="#212121"
           mask="url(#mask-2)"
           style="fill:#e5e5e5;fill-opacity:1" />
      </g>
    </g>
  </g>
  <metadata
     id="metadata1">
    <rdf:RDF>
      <cc:Work
         rdf:about="">
        <dc:title>Group 3</dc:title>
      </cc:Work>
    </rdf:RDF>
  </metadata>
</svg>
